<?xml version="1.0" standalone="no"?>
<!DOCTYPE svg PUBLIC "-//W3C//DTD SVG 20010904//EN"
 "http://www.w3.org/TR/2001/REC-SVG-20010904/DTD/svg10.dtd">
<svg version="1.0" xmlns="http://www.w3.org/2000/svg"
 width="512.000000pt" height="512.000000pt" viewBox="0 0 512.000000 512.000000"
 preserveAspectRatio="xMidYMid meet">
<metadata>
Created by potrace 1.11, written by Peter Selinger 2001-2013
</metadata>
<g transform="translate(0.000000,512.000000) scale(0.100000,-0.100000)"
fill="#000000" stroke="none">
<path d="M1960 4077 c0 -2 9 -14 20 -27 16 -18 17 -25 8 -32 -10 -6 -10 -8 0
-8 7 0 10 -4 7 -10 -3 -5 -2 -10 2 -10 5 0 10 -36 11 -81 3 -60 0 -79 -8 -74
-9 6 -9 2 0 -15 9 -17 9 -21 0 -15 -7 4 -10 2 -9 -6 4 -22 -12 -103 -23 -116
-6 -7 -7 -13 -3 -13 4 0 2 -7 -5 -15 -7 -8 -9 -15 -4 -15 5 0 3 -4 -5 -9 -8
-5 -16 -24 -18 -42 -2 -18 -8 -36 -14 -39 -5 -4 -9 -11 -8 -16 5 -16 -13 -58
-30 -72 -10 -8 -10 -11 -2 -6 11 6 13 3 6 -12 -4 -10 -10 -29 -12 -41 -3 -12
-11 -27 -19 -33 -7 -6 -10 -19 -7 -27 4 -11 2 -14 -5 -9 -8 4 -10 2 -6 -7 3
-8 0 -18 -5 -22 -6 -3 -9 -11 -5 -16 3 -5 0 -17 -8 -26 -7 -9 -8 -14 -2 -10 8
4 8 -3 0 -28 -6 -18 -14 -31 -19 -28 -5 3 -4 -5 3 -17 7 -12 7 -20 2 -16 -6 4
-9 -13 -7 -44 2 -27 -1 -53 -6 -56 -6 -3 -6 -12 0 -22 6 -11 4 -20 -7 -29 -16
-12 -16 -13 0 -7 13 4 16 -1 14 -30 -1 -20 3 -37 9 -39 6 -2 4 -11 -5 -22 -10
-13 -11 -16 -2 -11 9 5 15 1 19 -13 3 -12 10 -21 17 -21 6 0 4 -5 -4 -10 -13
-8 -12 -10 3 -10 10 0 15 -4 12 -10 -3 -5 -1 -10 5 -10 7 0 9 -7 6 -16 -3 -8
-2 -12 4 -9 6 3 10 1 10 -5 0 -6 4 -9 8 -6 5 3 16 -4 25 -15 10 -11 22 -17 27
-14 6 3 10 3 10 -2 0 -7 52 -9 123 -4 21 1 21 2 -5 18 -15 9 -33 28 -40 42 -7
14 -16 28 -19 31 -11 9 -41 72 -32 67 5 -3 10 4 10 16 2 17 0 19 -7 7 -5 -8
-10 -10 -11 -5 0 6 -3 19 -5 30 -4 18 -7 203 -4 248 1 9 5 15 9 12 5 -2 6 12
4 33 -3 27 1 40 14 50 16 11 16 14 3 22 -11 7 -11 10 -2 10 7 0 11 4 8 8 -3 5
1 20 9 35 8 15 11 27 8 27 -3 0 1 8 8 17 10 11 10 14 2 9 -19 -11 -15 5 5 20
12 10 13 13 3 14 -9 0 -10 4 -4 13 5 6 10 26 12 42 2 17 6 32 10 35 4 3 6 17
6 33 -1 18 4 27 15 27 12 0 12 2 1 9 -8 5 -9 11 -3 15 6 3 8 16 4 28 -3 12 -1
19 5 15 5 -3 8 8 7 29 -2 19 1 34 7 34 6 0 7 6 1 16 -12 21 -3 56 12 47 6 -3
6 0 -1 8 -7 7 -13 24 -13 37 0 15 4 21 13 17 6 -4 4 0 -6 8 -14 11 -15 16 -5
20 10 4 10 6 1 6 -7 1 -13 6 -13 12 0 5 6 7 13 4 6 -4 5 -1 -4 7 -22 19 -29
44 -16 58 9 10 9 11 -1 6 -8 -5 -19 4 -29 22 -14 25 -73 72 -73 59z"/>
<path d="M2540 3597 c0 -2 8 -13 18 -25 13 -15 18 -36 18 -72 -1 -27 2 -50 6
-50 4 0 5 -7 2 -15 -4 -8 -10 -13 -14 -10 -5 3 -12 0 -16 -6 -4 -7 -3 -9 4 -5
17 10 24 -11 9 -26 -8 -7 -12 -19 -9 -27 3 -9 0 -11 -8 -6 -9 5 -11 4 -6 -4
10 -15 -2 -64 -13 -57 -5 3 -8 -2 -7 -12 0 -10 -5 -16 -14 -14 -12 3 -12 1 -3
-9 13 -13 6 -42 -8 -33 -5 3 -6 -3 -2 -12 4 -12 3 -15 -5 -10 -8 5 -10 2 -6
-8 4 -10 1 -16 -7 -16 -11 0 -11 -3 1 -10 11 -7 11 -10 2 -10 -8 0 -10 -5 -6
-12 5 -8 2 -9 -9 -5 -10 3 -17 2 -17 -3 0 -6 4 -10 10 -10 5 0 7 -7 4 -15 -4
-8 -10 -13 -14 -10 -5 3 -6 -3 -3 -13 2 -11 -3 -26 -12 -36 -12 -12 -13 -16
-3 -16 9 0 10 -2 1 -8 -6 -4 -9 -23 -8 -42 5 -49 -3 -70 -23 -64 -12 4 -11 1
3 -8 12 -7 20 -22 20 -33 0 -11 6 -28 14 -38 13 -16 13 -19 1 -28 -12 -8 -11
-9 5 -7 12 2 19 -2 17 -10 -1 -6 1 -11 5 -10 16 4 73 -33 67 -43 -4 -8 0 -7
14 0 11 6 34 11 51 11 17 0 31 5 31 12 0 6 -3 9 -6 5 -7 -6 -34 17 -34 29 0 4
-8 13 -17 21 -10 8 -13 12 -6 9 6 -4 15 -1 19 5 4 8 3 9 -4 5 -7 -4 -12 -2
-12 4 0 6 -4 9 -9 6 -5 -3 -11 3 -14 14 -3 13 -1 18 6 13 8 -4 8 -2 0 9 -7 8
-10 18 -6 21 3 4 2 7 -3 7 -11 0 -10 62 1 80 6 9 4 11 -5 5 -9 -6 -11 -4 -5 5
7 11 15 53 18 88 0 6 4 12 8 12 5 0 5 7 2 17 -4 9 -2 14 3 10 5 -3 11 3 12 14
4 41 6 49 12 49 3 0 6 8 7 18 1 18 10 57 13 57 3 0 11 41 11 58 0 9 4 15 9 12
6 -3 7 1 3 10 -3 10 0 21 8 26 12 7 12 9 0 9 -11 0 -11 3 0 16 10 13 10 17 -2
25 -11 7 -11 9 0 9 11 0 11 3 0 17 -9 10 -9 14 -2 10 8 -5 7 1 -2 20 -8 15
-12 36 -9 47 4 11 2 16 -4 12 -6 -4 -14 -1 -19 7 -8 12 -63 51 -63 44z"/>
<path d="M2555 2740 c-3 -6 1 -7 9 -4 18 7 21 14 7 14 -6 0 -13 -4 -16 -10z"/>
<path d="M1250 2716 c-6 -8 -17 -13 -24 -10 -9 4 -12 -11 -10 -56 2 -55 1 -60
-13 -48 -14 11 -14 9 1 -14 18 -27 18 -58 1 -70 -6 -5 -5 -8 3 -8 7 0 10 -4 7
-10 -3 -5 0 -10 7 -10 10 0 10 -2 -1 -9 -9 -6 -10 -11 -2 -15 8 -5 8 -13 1
-27 -6 -10 -7 -19 -2 -19 5 0 8 -16 7 -35 -1 -19 1 -35 5 -35 3 0 5 -13 4 -30
-1 -16 1 -30 5 -30 4 0 8 -6 9 -12 0 -7 2 -30 3 -50 1 -21 7 -38 13 -38 6 0 5
-5 -2 -12 -9 -9 -8 -16 5 -30 10 -11 11 -18 5 -18 -7 0 -12 -5 -12 -11 0 -5 4
-8 9 -5 5 3 11 -1 15 -9 3 -8 1 -15 -4 -15 -6 0 -10 -5 -10 -11 0 -5 5 -7 10
-4 9 6 14 -10 13 -42 -1 -7 3 -10 8 -7 5 3 9 -1 9 -10 0 -8 -3 -16 -7 -19 -5
-2 -2 -2 6 0 9 2 12 -3 8 -17 -3 -11 -1 -18 3 -15 5 3 14 -14 21 -37 6 -24 16
-49 22 -57 10 -12 9 -13 -3 -6 -8 4 -5 -2 8 -14 19 -19 21 -25 10 -39 -8 -10
-8 -13 -1 -9 7 4 16 -5 25 -23 7 -16 17 -30 22 -30 4 0 2 -8 -5 -17 -7 -10 -9
-15 -5 -11 13 11 36 -11 36 -34 0 -10 5 -16 10 -13 6 3 10 -1 10 -9 0 -8 7
-22 16 -30 8 -9 12 -21 8 -27 -4 -7 -3 -9 2 -6 5 3 21 -11 34 -31 14 -20 32
-42 40 -49 12 -9 3 -11 -43 -10 -31 1 -57 -2 -57 -6 0 -5 -5 -5 -12 -1 -7 5
-30 7 -52 5 -24 -2 -42 2 -47 11 -7 10 -9 10 -9 -3 0 -10 -8 -15 -22 -14 -14
2 -22 8 -20 16 3 11 1 12 -9 2 -17 -17 -96 -17 -102 0 -4 8 -6 6 -6 -4 -1 -10
-9 -15 -23 -14 -14 2 -22 8 -20 16 3 11 1 12 -9 2 -8 -8 -39 -13 -75 -13 -41
0 -64 4 -67 13 -3 7 -6 4 -6 -6 -1 -12 -5 -15 -13 -11 -19 12 -48 12 -49 0 0
-6 -4 -2 -9 9 -8 18 -9 18 -9 2 -1 -10 -5 -16 -10 -12 -6 3 -9 -4 -8 -15 1
-11 5 -20 10 -20 4 0 6 -4 3 -9 -4 -5 -3 -11 1 -13 5 -1 19 -18 32 -37 13 -19
17 -30 10 -26 -8 4 3 -8 24 -26 20 -19 37 -40 37 -48 0 -8 3 -12 6 -8 3 3 22
-10 43 -29 86 -81 105 -98 91 -79 -11 15 -8 14 13 -4 15 -14 27 -20 27 -15 0
5 7 0 16 -11 8 -11 16 -19 17 -17 1 2 14 1 29 -3 16 -4 25 -11 22 -16 -3 -5 3
-6 12 -2 13 5 15 3 9 -8 -4 -8 -5 -11 0 -7 4 4 15 2 23 -5 13 -9 14 -9 8 0 -5
9 -2 11 8 7 9 -3 16 -10 16 -15 0 -4 7 -6 15 -2 9 3 25 -3 37 -13 15 -13 19
-14 14 -4 -6 13 -5 13 6 0 7 -9 25 -15 41 -14 15 2 27 -1 27 -5 0 -4 19 -8 43
-9 23 -1 43 -6 45 -11 2 -5 12 -6 24 -3 14 3 19 1 14 -6 -4 -7 -2 -12 3 -12 6
0 11 5 11 11 0 6 5 7 13 2 6 -4 20 -6 30 -5 9 2 17 -2 17 -9 0 -9 3 -10 11 -2
13 13 61 4 52 -11 -3 -6 0 -6 8 2 7 6 22 12 34 12 16 0 17 -2 5 -10 -8 -5 -10
-10 -4 -10 6 0 14 3 18 7 11 11 76 13 76 2 0 -6 -5 -7 -12 -3 -7 5 -8 3 -3 -6
7 -11 10 -10 19 1 14 18 51 25 40 8 -5 -8 -3 -9 7 -3 21 12 120 14 112 1 -4
-6 -1 -7 8 -1 21 13 120 14 112 1 -4 -6 -1 -7 8 -1 21 12 120 14 112 1 -4 -6
-1 -7 8 -1 22 13 120 14 112 0 -5 -7 -2 -7 8 1 15 12 36 13 55 0 6 -3 14 -3
18 1 12 11 166 11 159 -1 -4 -6 -1 -7 8 -1 21 12 120 14 112 1 -4 -6 -1 -7 8
-1 22 14 91 16 83 2 -5 -7 -3 -8 7 -2 20 12 73 12 81 0 5 -8 8 -8 8 0 0 6 19
10 46 9 25 0 48 3 51 8 3 5 9 3 14 -4 5 -9 9 -10 9 -2 0 6 15 12 33 12 87 4
105 6 101 13 -4 7 40 12 49 6 1 -1 11 4 23 10 16 8 24 8 34 -1 9 -8 11 -8 7
-1 -9 17 18 25 33 11 8 -7 10 -7 7 -1 -3 6 10 18 29 28 24 11 33 12 28 4 -6
-10 -4 -10 9 0 9 8 22 10 28 6 8 -5 9 -3 4 6 -6 10 -4 12 9 7 9 -4 15 -3 12 2
-3 5 1 12 10 15 10 4 13 2 8 -7 -4 -6 2 -4 14 6 12 11 26 16 33 11 7 -4 10 -3
5 4 -3 6 -2 13 4 17 5 3 10 0 10 -7 0 -8 5 -6 11 5 6 9 14 15 19 12 4 -3 11 2
14 11 3 8 10 13 15 9 6 -3 15 3 20 14 6 10 30 28 53 40 24 11 37 21 30 21 -6
0 13 25 44 55 31 30 53 55 48 55 -5 0 -1 5 9 11 9 6 15 14 12 20 -4 5 -2 9 3
9 8 0 20 24 26 52 0 3 4 10 9 14 19 20 -2 24 -119 24 -97 0 -124 3 -119 13 4
6 1 5 -7 -3 -11 -12 -40 -15 -166 -12 -117 2 -151 5 -147 15 4 6 1 5 -7 -3
-19 -22 -193 -16 -184 6 3 9 6 18 6 20 0 3 4 3 9 -1 5 -3 13 4 16 16 4 12 26
40 49 63 22 22 33 34 24 27 -22 -16 -24 1 -3 19 8 7 15 18 15 24 0 6 8 23 17
36 10 14 19 32 20 40 1 8 7 16 12 18 6 2 11 13 11 23 0 11 4 17 10 14 5 -3 7
0 4 8 -3 8 2 22 12 31 16 16 19 15 53 -23 21 -23 43 -41 49 -41 7 0 12 -5 12
-11 0 -5 -6 -7 -12 -3 -8 4 -10 3 -5 -2 8 -9 12 -10 38 -13 6 0 9 -7 6 -14 -4
-10 2 -13 18 -9 12 2 26 -2 30 -9 6 -8 4 -10 -6 -4 -12 8 -12 6 0 -8 15 -18
26 -23 16 -7 -9 14 1 13 34 -5 16 -8 31 -11 35 -8 3 4 6 1 6 -5 0 -7 3 -11 8
-11 4 1 27 1 52 0 33 -1 41 -4 30 -11 -21 -13 -3 -13 22 1 16 9 19 8 12 -3 -6
-11 -5 -11 9 1 13 10 17 10 17 1 0 -9 4 -9 13 -2 8 7 18 7 27 2 9 -5 17 -5 20
0 3 5 22 10 43 12 20 1 37 7 37 13 0 5 5 3 10 -5 5 -8 10 -10 10 -4 0 11 25
22 41 20 4 -1 17 8 30 19 12 11 19 14 15 8 -5 -9 -2 -11 8 -7 9 3 14 9 11 14
-5 7 44 35 58 32 4 -1 6 4 5 10 -2 8 5 12 17 10 14 -2 16 0 7 6 -9 6 -4 16 20
38 18 16 36 29 40 29 3 0 10 4 15 9 5 5 3 6 -4 2 -20 -11 -15 7 12 44 14 19
25 38 25 44 0 5 8 18 18 29 12 15 13 18 2 12 -13 -8 -13 -7 -1 9 8 10 15 30
15 46 1 16 4 31 8 35 4 4 4 14 1 23 -5 11 -3 13 8 7 11 -6 12 -5 2 6 -15 16
-17 33 -3 24 7 -4 7 2 0 19 -5 15 -6 28 0 31 5 3 4 18 -2 36 -5 16 -8 38 -5
49 3 11 1 18 -4 14 -5 -3 -9 2 -9 11 0 10 5 13 12 9 7 -4 8 -3 4 5 -4 6 -11 9
-16 6 -4 -3 -10 4 -13 15 -3 11 -1 18 4 14 5 -3 9 0 9 5 0 6 -7 11 -16 11 -12
0 -15 7 -12 25 3 13 1 23 -4 22 -5 -1 -17 9 -26 23 -14 20 -14 23 -2 16 8 -4
0 4 -18 19 -20 16 -31 33 -28 42 3 8 2 12 -3 9 -5 -3 -17 6 -27 19 -10 14 -24
25 -31 25 -6 0 -14 8 -18 19 -3 10 -13 18 -23 17 -9 0 -16 4 -15 9 1 6 -6 11
-15 12 -9 1 -39 12 -67 24 -27 13 -58 22 -69 20 -10 -1 -16 1 -13 6 3 5 -10 7
-30 5 -23 -3 -38 0 -44 9 -5 8 -9 9 -9 4 0 -6 -11 -11 -25 -11 -14 0 -25 5
-25 11 0 6 -3 6 -8 -1 -4 -7 -23 -13 -42 -15 -19 -2 -38 -8 -42 -14 -5 -6 -8
-3 -8 8 0 9 -4 17 -10 17 -5 0 -7 -8 -3 -17 3 -10 3 -15 -2 -11 -4 4 -15 2
-23 -5 -13 -10 -15 -9 -8 3 4 8 1 7 -7 -3 -9 -11 -21 -15 -32 -10 -13 4 -16 3
-11 -5 6 -11 -5 -17 -26 -13 -5 0 -8 -4 -8 -11 0 -6 -6 -3 -14 7 -10 14 -11
25 -5 37 10 19 4 22 -40 18 -14 -1 -21 2 -17 8 4 7 -3 8 -22 2 -16 -4 -35 -4
-43 0 -7 5 -18 6 -24 2 -14 -9 -55 -10 -49 -1 2 4 0 11 -6 14 -6 4 -9 1 -8 -6
2 -6 -3 -14 -11 -17 -9 -3 -11 0 -6 8 6 9 3 9 -14 1 -18 -10 -20 -9 -15 6 5
17 5 17 -6 1 -12 -19 -36 -26 -24 -7 4 7 -1 7 -16 -1 -13 -7 -20 -8 -16 -2 3
6 2 14 -4 17 -6 4 -9 1 -8 -6 2 -6 -3 -14 -11 -17 -9 -3 -11 0 -6 8 5 9 4 11
-3 6 -22 -13 -52 -15 -52 -3 0 7 -4 6 -10 -3 -8 -11 -12 -12 -18 -3 -5 8 -13
9 -22 3 -20 -13 -33 -12 -24 1 5 8 1 8 -14 0 -11 -6 -23 -11 -27 -11 -3 0 -3
5 1 11 5 8 1 8 -14 0 -28 -15 -32 -14 -25 7 7 16 6 16 -11 0 -20 -21 -41 -24
-30 -5 5 7 0 6 -11 -3 -10 -8 -16 -10 -12 -3 4 6 3 15 -3 18 -6 4 -9 1 -8 -6
2 -6 -3 -14 -11 -17 -8 -2 -11 0 -8 5 7 11 -29 11 -39 0 -12 -11 -26 -8 -18 4
4 7 -2 6 -17 -2 -23 -12 -23 -11 -9 7 14 18 14 18 -6 2 -21 -19 -39 -24 -30
-10 6 10 -30 9 -40 -1 -11 -10 -26 -8 -19 2 3 5 0 13 -6 17 -7 4 -9 3 -6 -3 4
-6 0 -14 -9 -17 -10 -4 -13 -2 -8 6 5 7 3 8 -6 3 -15 -9 -90 -14 -85 -5 5 9
-33 6 -41 -3 -11 -10 -26 -8 -19 2 3 5 0 13 -6 17 -7 4 -9 3 -6 -3 4 -6 0 -14
-9 -17 -10 -4 -13 -2 -8 7 5 8 2 7 -9 -2 -16 -13 -22 -8 -17 14 1 5 -7 2 -18
-8 -21 -19 -37 -23 -26 -5 4 7 3 8 -5 4 -19 -12 -63 -18 -57 -7 4 5 1 13 -5
17 -7 4 -9 3 -6 -3 4 -6 0 -14 -9 -17 -10 -4 -13 -2 -8 7 6 9 5 9 -7 0 -11 -9
-19 -9 -26 -2 -8 8 -13 8 -17 0 -4 -6 -12 -11 -18 -11 -6 0 -5 7 3 18 13 15
12 16 -3 4 -9 -8 -22 -11 -27 -8 -5 4 -12 2 -16 -4 -3 -5 -11 -10 -17 -10 -6
0 -5 7 3 18 11 14 10 13 -9 -2 -16 -14 -22 -15 -22 -6 0 11 -3 11 -12 2 -9 -9
-16 -8 -31 5 -13 12 -17 13 -15 4 2 -7 -3 -16 -11 -19 -10 -3 -11 0 -5 9 7 12
5 12 -9 0 -15 -12 -17 -11 -17 3 0 9 -5 16 -10 16 -6 0 -9 -5 -8 -11 2 -6 -3
-14 -11 -17 -10 -3 -11 0 -5 9 6 11 3 10 -11 -1 -17 -13 -18 -13 -13 1 4 9 1
16 -7 16 -8 0 -14 -3 -13 -6 2 -18 -4 -22 -16 -12 -10 8 -16 9 -21 1 -3 -5
-11 -10 -16 -10 -6 0 -7 6 -3 13 5 7 0 6 -11 -3 -17 -14 -18 -13 -11 4 6 19 6
19 -12 3 -22 -20 -36 -22 -26 -4 5 8 2 8 -9 -2 -13 -10 -17 -10 -17 -1 0 10
-3 10 -14 1 -11 -10 -16 -9 -24 5 -8 15 -10 15 -15 0 -4 -9 -11 -16 -17 -16
-6 0 -8 6 -4 13 5 7 0 6 -11 -3 -17 -14 -18 -13 -12 4 6 16 5 17 -8 6 -8 -7
-42 -13 -74 -14 -52 -1 -58 1 -48 14 6 8 2 6 -11 -4 -16 -14 -22 -15 -22 -6 0
11 -3 11 -12 2 -19 -19 -32 -14 -17 6 12 16 12 16 -6 0 -17 -16 -19 -16 -32 0
-7 9 -13 13 -12 7 3 -22 -2 -27 -15 -16 -10 8 -16 9 -21 1 -3 -5 -11 -10 -16
-10 -6 0 -7 6 -3 13 5 7 0 6 -11 -3 -17 -14 -18 -13 -12 4 6 16 5 17 -8 6 -20
-17 -121 -18 -117 -1 3 15 -3 14 -18 -3z m2476 -228 c-4 7 -1 12 8 12 9 0 16
-6 16 -12 0 -9 3 -9 8 -3 9 14 72 16 72 3 0 -6 7 -8 15 -4 8 3 15 1 15 -5 0
-6 5 -7 12 -3 8 5 9 2 5 -9 -7 -20 8 -23 17 -4 5 10 7 10 12 0 3 -7 12 -13 20
-13 9 0 12 -4 9 -10 -3 -5 0 -10 8 -10 7 0 24 -12 38 -27 13 -14 18 -23 10
-18 -9 5 -12 4 -7 -3 4 -7 13 -12 21 -12 7 0 16 -7 19 -16 4 -10 2 -13 -7 -9
-6 4 -4 0 7 -9 10 -8 15 -20 10 -27 -4 -8 -3 -10 4 -5 8 5 12 -1 12 -16 0 -13
4 -30 9 -37 6 -9 6 -22 -1 -34 -7 -14 -7 -17 1 -13 15 10 14 -7 -1 -22 -9 -9
-9 -12 1 -12 11 0 11 -3 0 -17 -12 -14 -12 -16 0 -8 11 6 12 5 5 -6 -5 -8 -9
-17 -10 -21 -1 -5 -3 -10 -4 -13 -4 -8 -7 -24 -9 -40 0 -8 -8 -15 -16 -15 -8
0 -15 -5 -15 -11 0 -5 6 -7 13 -3 8 5 8 3 -2 -9 -7 -9 -17 -14 -22 -11 -5 3
-6 -3 -2 -12 5 -14 3 -16 -12 -10 -11 4 -16 4 -13 0 12 -12 -12 -46 -28 -40
-8 3 -13 2 -10 -3 6 -8 -9 -18 -28 -19 -5 0 -12 -6 -16 -12 -4 -7 -24 -13 -43
-14 -19 0 -33 -5 -30 -10 10 -16 -150 1 -189 20 -21 10 -38 21 -38 26 0 4 -7
8 -16 8 -10 0 -14 5 -10 16 3 9 2 12 -5 9 -12 -8 -49 23 -49 42 0 7 -5 13 -11
13 -6 0 -9 9 -6 20 3 11 1 18 -3 15 -14 -9 -26 19 -36 88 -3 20 0 26 9 21 9
-5 9 -4 0 7 -7 7 -13 22 -13 34 0 12 6 27 13 34 7 9 8 12 0 7 -7 -4 -9 1 -6
14 3 11 9 18 13 15 5 -3 6 4 3 16 -3 12 -2 24 4 28 5 3 20 22 33 41 32 48 61
70 85 65 11 -3 14 -2 8 1 -19 8 -16 27 3 20 10 -4 13 -2 8 6 -5 8 -2 9 9 5 10
-4 17 -2 17 4 0 6 6 9 14 6 8 -3 17 -1 20 6 3 9 8 8 15 -3 9 -13 11 -12 11 4
0 16 2 17 17 5 11 -10 14 -10 9 -1z"/>
<path d="M3795 2480 c3 -5 8 -10 11 -10 2 0 4 5 4 10 0 6 -5 10 -11 10 -5 0
-7 -4 -4 -10z"/>
<path d="M3527 1999 c7 -7 15 -10 18 -7 3 3 -2 9 -12 12 -14 6 -15 5 -6 -5z"/>
</g>
</svg>
